<?xml version="1.0" encoding="UTF-8"?><svg id="Lager_2" xmlns="http://www.w3.org/2000/svg" viewBox="0 0 280.87 113.97"><defs><style>.cls-1,.cls-2,.cls-3{stroke-width:0px;}.cls-2{fill:#4f4f4e;}.cls-3{fill:#00c57b;}</style></defs><g id="Lager_1-2"><circle class="cls-3" cx="191.16" cy="30.98" r=".99"/><circle class="cls-3" cx="192.92" cy="45.05" r=".99"/><circle class="cls-3" cx="200.96" cy="14.8" r=".99"/><circle class="cls-3" cx="194.48" cy="27.34" r="1.41"/><circle class="cls-3" cx="194.48" cy="40.34" r="1.57"/><circle class="cls-3" cx="198.16" cy="24.2" r="1.73"/><circle class="cls-3" cx="202.3" cy="21.59" r="1.92"/><circle class="cls-3" cx="206.71" cy="19.71" r="2.17"/><circle class="cls-3" cx="211.42" cy="18.57" r="2.33"/><circle class="cls-3" cx="216.19" cy="18.16" r="2.37"/><circle class="cls-3" cx="221.18" cy="18.57" r="2.37"/><circle class="cls-3" cx="225.95" cy="19.36" r="2.41"/><circle class="cls-3" cx="230.37" cy="21.32" r="2.28"/><circle class="cls-3" cx="234.59" cy="23.61" r="2.28"/><circle class="cls-3" cx="238.39" cy="26.7" r="2.08"/><circle class="cls-3" cx="241.61" cy="30.22" r="1.77"/><circle class="cls-3" cx="244.33" cy="34.19" r="1.43"/><circle class="cls-3" cx="246.43" cy="38.61" r=".86"/><circle class="cls-3" cx="196.94" cy="35.84" r="1.96"/><circle class="cls-3" cx="200.32" cy="32.07" r="2.23"/><circle class="cls-3" cx="204.35" cy="29.06" r="2.41"/><circle class="cls-3" cx="209.02" cy="26.98" r="2.41"/><circle class="cls-3" cx="213.82" cy="25.93" r="2.41"/><circle class="cls-3" cx="218.99" cy="25.82" r="2.3"/><circle class="cls-3" cx="223.89" cy="26.78" r="1.99"/><circle class="cls-3" cx="232.65" cy="31.67" r=".99"/><circle class="cls-3" cx="228.46" cy="28.79" r="1.57"/><circle class="cls-3" cx="205.62" cy="13.07" r="1.41"/><circle class="cls-3" cx="196.64" cy="17.19" r=".73"/><circle class="cls-3" cx="210.5" cy="12.02" r="1.73"/><circle class="cls-3" cx="215.67" cy="11.66" r="1.92"/><circle class="cls-3" cx="220.73" cy="11.66" r="2.17"/><circle class="cls-3" cx="225.6" cy="12.57" r="2.17"/><circle class="cls-3" cx="230.37" cy="14.02" r="2.36"/><circle class="cls-3" cx="234.91" cy="16.1" r="2.36"/><circle class="cls-3" cx="239.22" cy="18.85" r="2.36"/><circle class="cls-3" cx="243.1" cy="22.07" r="2.36"/><circle class="cls-3" cx="246.55" cy="25.71" r="2.36"/><circle class="cls-3" cx="249.46" cy="29.82" r="2.17"/><circle class="cls-3" cx="251.83" cy="34.19" r="2.08"/><circle class="cls-3" cx="253.6" cy="38.98" r="1.77"/><circle class="cls-3" cx="254.75" cy="43.95" r="1.77"/><circle class="cls-3" cx="255.1" cy="48.89" r="1.43"/><circle class="cls-3" cx="255.1" cy="53.97" r=".86"/><circle class="cls-3" cx="254.25" cy="58.93" r=".73"/><circle class="cls-3" cx="245.76" cy="85.64" r=".73"/><circle class="cls-3" cx="249.48" cy="82.31" r=".86"/><circle class="cls-3" cx="255.67" cy="74.56" r="1.43"/><circle class="cls-3" cx="252.67" cy="78.71" r="1.28"/><circle class="cls-3" cx="258.08" cy="70.27" r="1.72"/><circle class="cls-3" cx="259.85" cy="65.83" r="1.86"/><circle class="cls-3" cx="261.34" cy="61" r="2.06"/><circle class="cls-3" cx="262.27" cy="56.31" r="2.06"/><circle class="cls-3" cx="262.71" cy="51.28" r="2.3"/><circle class="cls-3" cx="262.51" cy="46.38" r="2.3"/><circle class="cls-3" cx="261.82" cy="41.48" r="2.3"/><circle class="cls-3" cx="260.76" cy="36.89" r="2.3"/><circle class="cls-3" cx="259.09" cy="32.14" r="2.3"/><circle class="cls-3" cx="256.79" cy="27.65" r="2.3"/><circle class="cls-3" cx="254.28" cy="23.61" r="2.3"/><circle class="cls-3" cx="251.21" cy="19.71" r="2.3"/><circle class="cls-3" cx="247.76" cy="16.1" r="2.3"/><circle class="cls-3" cx="243.95" cy="13" r="2.11"/><circle class="cls-3" cx="239.79" cy="10.31" r="2.05"/><circle class="cls-3" cx="235.38" cy="8.11" r="1.89"/><circle class="cls-3" cx="230.77" cy="6.3" r="1.74"/><circle class="cls-3" cx="226.13" cy="5.01" r="1.41"/><circle class="cls-3" cx="221.21" cy="4.22" r="1.14"/><circle class="cls-3" cx="211.32" cy="4.39" r=".62"/><circle class="cls-3" cx="216.32" cy="4.09" r=".93"/><circle class="cls-3" cx="217.14" cy="104.11" r=".73"/><circle class="cls-3" cx="222.18" cy="103.98" r=".86"/><circle class="cls-3" cx="231.99" cy="101.96" r="1.43"/><circle class="cls-3" cx="227.09" cy="103.13" r="1.28"/><circle class="cls-3" cx="236.7" cy="100.25" r="1.72"/><circle class="cls-3" cx="241.26" cy="98.24" r="1.72"/><circle class="cls-3" cx="245.69" cy="95.77" r="1.87"/><circle class="cls-3" cx="249.88" cy="92.84" r="2.07"/><circle class="cls-3" cx="253.69" cy="89.64" r="2.07"/><circle class="cls-3" cx="257.16" cy="85.98" r="2.24"/><circle class="cls-3" cx="260.28" cy="82.1" r="2.24"/><circle class="cls-3" cx="263.13" cy="77.82" r="2.24"/><circle class="cls-3" cx="265.57" cy="73.55" r="2.44"/><circle class="cls-3" cx="267.48" cy="68.83" r="2.44"/><circle class="cls-3" cx="269" cy="64.09" r="2.44"/><circle class="cls-3" cx="269.92" cy="59.05" r="2.44"/><circle class="cls-3" cx="270.7" cy="54.01" r="2.44"/><circle class="cls-3" cx="270.85" cy="48.98" r="2.44"/><circle class="cls-3" cx="270.48" cy="43.95" r="2.32"/><circle class="cls-3" cx="269.72" cy="38.98" r="2.32"/><circle class="cls-3" cx="268.49" cy="34.01" r="2.32"/><circle class="cls-3" cx="266.8" cy="29.29" r="2.23"/><circle class="cls-3" cx="264.62" cy="24.81" r="2.08"/><circle class="cls-3" cx="262.01" cy="20.49" r="1.92"/><circle class="cls-3" cx="259.07" cy="16.33" r="1.81"/><circle class="cls-3" cx="255.75" cy="12.56" r="1.71"/><circle class="cls-3" cx="252.08" cy="9.1" r="1.56"/><circle class="cls-3" cx="248.1" cy="5.98" r="1.33"/><circle class="cls-3" cx="243.9" cy="3.16" r="1.06"/><circle class="cls-3" cx="239.59" cy=".93" r=".93"/><circle class="cls-3" cx="212.05" cy="103.98" r=".51"/><circle class="cls-3" cx="176.6" cy="97.54" r=".51"/><circle class="cls-3" cx="180.63" cy="100.54" r=".73"/><circle class="cls-3" cx="184.75" cy="103.39" r=".86"/><circle class="cls-3" cx="193.79" cy="107.79" r="1.28"/><circle class="cls-3" cx="198.53" cy="109.61" r="1.43"/><circle class="cls-3" cx="189.2" cy="105.72" r="1.14"/><circle class="cls-3" cx="203.48" cy="110.69" r="1.62"/><circle class="cls-3" cx="208.33" cy="111.62" r="1.62"/><circle class="cls-3" cx="213.44" cy="112.07" r="1.9"/><circle class="cls-3" cx="218.32" cy="112.07" r="1.9"/><circle class="cls-3" cx="223.54" cy="111.73" r="2.02"/><circle class="cls-3" cx="228.36" cy="111.01" r="2.02"/><circle class="cls-3" cx="233.26" cy="109.9" r="2.02"/><circle class="cls-3" cx="238.11" cy="108.33" r="2.21"/><circle class="cls-3" cx="242.74" cy="106.45" r="2.21"/><circle class="cls-3" cx="247.3" cy="104.1" r="2.35"/><circle class="cls-3" cx="251.43" cy="101.4" r="2.35"/><circle class="cls-3" cx="255.44" cy="98.43" r="2.35"/><circle class="cls-3" cx="259.27" cy="95.19" r="2.35"/><circle class="cls-3" cx="262.74" cy="91.6" r="2.35"/><circle class="cls-3" cx="266.1" cy="87.68" r="2.35"/><circle class="cls-3" cx="268.94" cy="83.63" r="2.35"/><circle class="cls-3" cx="271.56" cy="79.27" r="2.35"/><circle class="cls-3" cx="273.67" cy="74.68" r="2.35"/><circle class="cls-3" cx="275.53" cy="70.13" r="2.21"/><circle class="cls-3" cx="276.9" cy="65.27" r="2.21"/><circle class="cls-3" cx="277.92" cy="60.41" r="2.21"/><circle class="cls-3" cx="263.05" cy="8.77" r=".51"/><circle class="cls-3" cx="266.38" cy="12.7" r=".73"/><circle class="cls-3" cx="269.34" cy="16.95" r=".86"/><circle class="cls-3" cx="271.69" cy="21.31" r="1.14"/><circle class="cls-3" cx="273.97" cy="25.81" r="1.41"/><circle class="cls-3" cx="275.61" cy="30.48" r="1.41"/><circle class="cls-3" cx="277.01" cy="35.26" r="1.63"/><circle class="cls-3" cx="277.99" cy="40.25" r="1.63"/><circle class="cls-3" cx="278.67" cy="45.24" r="1.81"/><circle class="cls-3" cx="278.75" cy="50.2" r="1.92"/><circle class="cls-3" cx="278.67" cy="55.39" r="2.21"/><path class="cls-2" d="m23.87,84.41c-4.54,0-8.62-1-12.25-3.01-3.63-2-6.47-4.82-8.53-8.44-2.06-3.63-3.09-7.88-3.09-12.78s1.03-9.08,3.09-12.73c2.06-3.65,4.91-6.48,8.53-8.49,3.63-2,7.71-3.01,12.25-3.01,3.95,0,7.49.87,10.61,2.61,3.12,1.74,5.6,4.39,7.43,7.96,1.83,3.57,2.74,8.12,2.74,13.66s-.88,10.02-2.65,13.62c-1.77,3.6-4.2,6.26-7.3,8-3.09,1.74-6.71,2.61-10.83,2.61Zm1.33-9.37c2.65,0,5.03-.6,7.12-1.81,2.09-1.21,3.77-2.95,5.04-5.22,1.27-2.27,1.9-4.88,1.9-7.83s-.63-5.62-1.9-7.83c-1.27-2.21-2.95-3.92-5.04-5.13-2.09-1.21-4.47-1.81-7.12-1.81s-5.03.61-7.12,1.81c-2.09,1.21-3.77,2.92-5.04,5.13-1.27,2.21-1.9,4.82-1.9,7.83s.63,5.56,1.9,7.83c1.27,2.27,2.95,4.01,5.04,5.22,2.09,1.21,4.47,1.81,7.12,1.81Zm14.41,8.75v-11.14l.27-12.56-.88-12.56v-29.36h11.14v65.61h-10.52Z"/><path class="cls-2" d="m85.86,84.41c-4.77,0-9.06-1.05-12.87-3.14-3.8-2.09-6.79-4.97-8.98-8.62-2.18-3.65-3.27-7.81-3.27-12.47s1.09-8.96,3.27-12.56c2.18-3.59,5.16-6.44,8.93-8.53,3.77-2.09,8.08-3.14,12.91-3.14s9.24,1.05,13.04,3.14c3.8,2.09,6.78,4.94,8.93,8.53,2.15,3.6,3.23,7.78,3.23,12.56s-1.08,8.89-3.23,12.51c-2.15,3.63-5.14,6.49-8.98,8.58-3.83,2.09-8.17,3.14-13,3.14Zm0-9.37c2.71,0,5.13-.6,7.25-1.81,2.12-1.21,3.79-2.95,5-5.22,1.21-2.27,1.81-4.88,1.81-7.83s-.61-5.62-1.81-7.83c-1.21-2.21-2.87-3.92-5-5.13-2.12-1.21-4.51-1.81-7.16-1.81s-5.04.61-7.16,1.81c-2.12,1.21-3.8,2.92-5.04,5.13-1.24,2.21-1.86,4.82-1.86,7.83s.62,5.56,1.86,7.83c1.24,2.27,2.92,4.01,5.04,5.22,2.12,1.21,4.48,1.81,7.07,1.81Z"/><path class="cls-2" d="m143.34,84.41c-4.95,0-9.36-1.05-13.22-3.14-3.86-2.09-6.88-4.95-9.06-8.58-2.18-3.63-3.27-7.8-3.27-12.51s1.09-8.96,3.27-12.56c2.18-3.59,5.2-6.44,9.06-8.53,3.86-2.09,8.27-3.14,13.22-3.14,4.54,0,8.58.94,12.11,2.83,3.54,1.89,6.19,4.63,7.96,8.22l-8.4,4.95c-1.41-2.18-3.14-3.82-5.17-4.91-2.03-1.09-4.23-1.64-6.59-1.64-2.71,0-5.16.61-7.34,1.81-2.18,1.21-3.89,2.92-5.13,5.13-1.24,2.21-1.86,4.82-1.86,7.83s.62,5.63,1.86,7.87c1.24,2.24,2.95,3.97,5.13,5.17,2.18,1.21,4.63,1.81,7.34,1.81,2.36,0,4.55-.54,6.59-1.64,2.03-1.09,3.76-2.75,5.17-5l8.4,4.95c-1.77,3.54-4.42,6.26-7.96,8.18-3.54,1.92-7.58,2.87-12.11,2.87Z"/><path class="cls-3" d="m178.18,28.79c-2.06,0-3.76-.65-5.08-1.95-1.33-1.3-1.99-2.89-1.99-4.78,0-1.77.66-3.3,1.99-4.6,1.33-1.3,3.02-1.95,5.08-1.95s3.76.61,5.08,1.81c1.33,1.21,1.99,2.76,1.99,4.64s-.65,3.49-1.95,4.82c-1.3,1.33-3.01,1.99-5.13,1.99Zm-5.48,55v-47.22h10.96v47.22h-10.96Z"/><path class="cls-3" d="m219.38,84.41c-4.77,0-9.06-1.05-12.87-3.14-3.8-2.09-6.79-4.97-8.98-8.62-2.18-3.65-3.27-7.81-3.27-12.47s1.09-8.96,3.27-12.56c2.18-3.59,5.16-6.44,8.93-8.53,3.77-2.09,8.08-3.14,12.91-3.14s9.24,1.05,13.04,3.14c3.8,2.09,6.78,4.94,8.93,8.53,2.15,3.6,3.23,7.78,3.23,12.56s-1.08,8.89-3.23,12.51c-2.15,3.63-5.14,6.49-8.98,8.58-3.83,2.09-8.17,3.14-13,3.14Zm0-9.37c2.71,0,5.13-.6,7.25-1.81,2.12-1.21,3.79-2.95,5-5.22,1.21-2.27,1.81-4.88,1.81-7.83s-.61-5.62-1.81-7.83c-1.21-2.21-2.87-3.92-5-5.13-2.12-1.21-4.51-1.81-7.16-1.81s-5.04.61-7.16,1.81c-2.12,1.21-3.8,2.92-5.04,5.13-1.24,2.21-1.86,4.82-1.86,7.83s.62,5.56,1.86,7.83c1.24,2.27,2.92,4.01,5.04,5.22,2.12,1.21,4.48,1.81,7.07,1.81Z"/><path class="cls-1" d="m141.7,75.01s.03.1.05.14c-.02-.02-.06-.04-.06-.06,0-.02.03-.05.04-.08,0,0-.02,0-.02,0Z"/><path class="cls-1" d="m144.19,75.01s.06.05.06.08c0,.03-.04.05-.06.08,0-.05.02-.11.02-.16,0,0-.02,0-.02,0Z"/></g></svg>